# xmcd
#
# Track frame offsets:
#	150
#	17497
#	30921
#	44977
#	64545
#	81956
#	98952
#	116295
#	132439
#	150847
#	168194
#	181618
#	195674
#	215242
#	232653
#	249649
#	266992
#	283136
#
# Disc length: 4020
#
# Revision: 1
# Processed by: cddbd v1.5.2PL0 Copyright (c) Steve Scherf et al.
# Submitted via: kJams Pro (development) 1.0patch45.4
#
DISCID=f00fb212
DTITLE=Various Artist - NSC 3004
DYEAR=1990
DGENRE=Country
TTITLE0=The Judds - Stuck In Love
TTITLE1=Brooks and Dunn - You'll Always Be Loved By Me
TTITLE2=Eric Heatherly - Flowers On The Wall
TTITLE3=George Strait - Murder On Music Row
TTITLE4=Rascal Flatts - Praying For Daylight
TTITLE5=Shedaisy - I Will .... But
TTITLE6=Steve Wariner - Faith In You
TTITLE7=Mark Willis - Almost Doesn't Count
TTITLE8=Lee Ann Wormack - I Hope You Dance
TTITLE9=The Judds - Vocals - Stuck In Love
TTITLE10=Brooks and Dunn - Vocals - You'll Always Be Loved By Me
TTITLE11=Eric Heatherly - Vocals - Flowers On The Wall
TTITLE12=George Strait - Vocals - Murder On Music Row
TTITLE13=Rascal Flatts - Vocal - Praying For Daylight
TTITLE14=Shedaisy - Vocals - I Will ......  But
TTITLE15=Steve Wariner - Vocals - Faith In You
TTITLE16=Mark Willis - Vocals - Almost Doesn't Count
TTITLE17=Lee Ann Womack - Vocals - I Hope You Dance
EXTD=
EXTT0=
EXTT1=
EXTT2=
EXTT3=
EXTT4=
EXTT5=
EXTT6=
EXTT7=
EXTT8=
EXTT9=
EXTT10=
EXTT11=
EXTT12=
EXTT13=
EXTT14=
EXTT15=
EXTT16=
EXTT17=
PLAYORDER=
